<svg width="28" height="28" xmlns="http://www.w3.org/2000/svg"><g fill="#000" fill-rule="nonzero"><path d="M22.782 7.011l-2.518-.013-2.413-3.626A.797.797 0 0 0 17.19 3h-6.5a.793.793 0 0 0-.647.359l-2.492 3.64-2.334.012C3.45 7.011 2 8.472 2 10.252v10.48C2 22.512 3.45 24 5.218 24h17.564C24.55 24 26 22.512 26 20.732v-10.48c0-1.78-1.45-3.24-3.218-3.24zm1.636 13.721c0 .904-.739 1.674-1.636 1.674H5.218c-.897 0-1.636-.77-1.636-1.674v-10.48a1.65 1.65 0 0 1 1.636-1.647h2.756a.793.793 0 0 0 .646-.358l2.492-3.64h5.657l2.4 3.613a.812.812 0 0 0 .646.359l2.954.026a1.65 1.65 0 0 1 1.635 1.647v10.48h.014z"/><path d="M14 9c-3.318 0-6 2.696-6 6s2.696 6 6 6 6-2.696 6-6-2.696-6-6-6zm0 10.306A4.314 4.314 0 0 1 9.694 15 4.314 4.314 0 0 1 14 10.694 4.314 4.314 0 0 1 18.306 15 4.314 4.314 0 0 1 14 19.306z"/></g></svg>