<svg width="24" height="18" xmlns="http://www.w3.org/2000/svg"><g fill="none" fill-rule="evenodd"><path d="M-1-4h26v26H-1z"/><g transform="translate(-1 -4)"><path d="M0 0h26v26H0z"/><path d="M3.656 17.469v3.258c0 .225.182.406.406.406h3.25a.406.406 0 0 0 .407-.406V17.47H3.656zm14.625 0v3.27c0 .225.182.406.407.406h3.25a.406.406 0 0 0 .406-.406v-3.27H18.28z" stroke="#000" fill="#FFF" fill-rule="nonzero"/><path d="M2.844 11.929c-.421.375-.668.91-.68 1.474v3.66c0 1.121.83 2.03 1.952 2.03h17.822c1.121 0 2.03-.909 2.03-2.03V13.5c0-.615-.279-1.198-.759-1.584l-.308-.247a2.844 2.844 0 0 1-.976-1.518l-.835-3.293c-.228-.899-1.035-1.932-1.962-1.935l-12.19-.044c-.92-.004-1.729 1.016-1.968 1.905l-.933 3.46a2.844 2.844 0 0 1-.856 1.385l-.337.3z" stroke="#000" fill="#000"/><path d="M4.81 11.917h16.38c1.197 0 2.167.97 2.167 2.166v2.438c0 1.196-.97 2.166-2.167 2.166H4.81a2.167 2.167 0 0 1-2.166-2.166v-2.438c0-1.196.97-2.166 2.167-2.166z" fill="#FFF"/><path fill="#000" d="M9.75 14.083h6.5v1.083h-6.5z"/><circle stroke="#000" fill="#FFF" cx="5.688" cy="15.438" r="1.625"/><circle stroke="#000" fill="#FFF" cx="20.313" cy="15.438" r="1.625"/><path fill="#000" d="M9.75 16.25h6.5v1.083h-6.5z"/><path d="M6.966 5.417h12.31c.69 0 1.098.707 1.307 1.35l1.084 4.066H4.333l1.12-4.055c.205-.648.819-1.361 1.513-1.361z" fill="#FFF"/></g></g></svg>