<svg width="28" height="28" xmlns="http://www.w3.org/2000/svg"><path d="M24.484 15.943c-.088.398-.198.79-.329 1.175-.105 1.41.691 3.281 2.441 5.577l.591.775-.9.373c-2.845 1.177-5.72 1.208-8.584.095a11.22 11.22 0 0 1-4.203.812c-6.213 0-11.25-5.037-11.25-11.25S7.287 2.25 13.5 2.25 24.75 7.287 24.75 13.5c0 .647-.055 1.286-.162 1.915a1.632 1.632 0 0 1-.104.528zm-1.814.942l.038-.172a9.67 9.67 0 0 0 .321-1.14l.034-.113c.02-.05.024-.07.025-.046l.01-.188c.1-.566.152-1.142.152-1.726 0-5.385-4.365-9.75-9.75-9.75S3.75 8.115 3.75 13.5s4.365 9.75 9.75 9.75c1.36 0 2.679-.278 3.897-.81l.293-.128.295.123c2.29.953 4.553 1.07 6.822.352-1.58-2.264-2.306-4.223-2.137-5.902z" fill="#000" fill-rule="nonzero"/></svg>