<svg width="28" height="28" xmlns="http://www.w3.org/2000/svg"><path d="M22.766 2H5.234A3.234 3.234 0 0 0 2 5.234v17.532A3.234 3.234 0 0 0 5.234 26h8.647l.014-8.576h-2.228a.526.526 0 0 1-.525-.524l-.011-2.765a.526.526 0 0 1 .526-.527h2.224v-2.671c0-3.1 1.893-4.788 4.658-4.788h2.27c.29 0 .525.235.525.525v2.331c0 .29-.235.526-.525.526h-1.393c-1.504 0-1.795.715-1.795 1.764v2.313h3.305c.315 0 .559.275.522.587l-.328 2.765a.526.526 0 0 1-.522.464h-2.962L17.62 26h5.145A3.234 3.234 0 0 0 26 22.766V5.234A3.234 3.234 0 0 0 22.766 2z" fill="#000" fill-rule="nonzero"/></svg>