<svg width="28" height="28" xmlns="http://www.w3.org/2000/svg"><path d="M13.998 4.615l.399-.407A7.272 7.272 0 0 1 19.622 2c1.973 0 3.831.786 5.224 2.208A7.54 7.54 0 0 1 27 9.514c0 2-.766 3.887-2.154 5.305L13.998 25.896 3.151 14.819C.283 11.89.283 7.137 3.15 4.209A7.27 7.27 0 0 1 8.375 2c1.973 0 3.833.787 5.225 2.208l.398.407zm9.42 8.804A5.54 5.54 0 0 0 25 9.514a5.54 5.54 0 0 0-1.583-3.906A5.272 5.272 0 0 0 19.622 4a5.272 5.272 0 0 0-3.796 1.607l-1.828 1.867-1.827-1.867A5.272 5.272 0 0 0 8.375 4 5.271 5.271 0 0 0 4.58 5.607c-2.107 2.152-2.107 5.662 0 7.812l9.418 9.618 9.42-9.618z" fill="#000" fill-rule="nonzero"/></svg>