<svg width="28" height="28" xmlns="http://www.w3.org/2000/svg"><path d="M18.5 2A7.5 7.5 0 0 1 26 9.5v9a7.5 7.5 0 0 1-7.5 7.5h-9A7.5 7.5 0 0 1 2 18.5v-9A7.5 7.5 0 0 1 9.5 2h9zm5.25 16.5v-9a5.256 5.256 0 0 0-5.25-5.25h-9A5.256 5.256 0 0 0 4.25 9.5v9a5.256 5.256 0 0 0 5.25 5.25h9a5.256 5.256 0 0 0 5.25-5.25zM14.5 8a6.5 6.5 0 1 1 0 13 6.5 6.5 0 0 1 0-13zm0 10.563a4.068 4.068 0 0 0 4.063-4.063 4.067 4.067 0 0 0-4.063-4.063 4.067 4.067 0 0 0-4.063 4.063 4.068 4.068 0 0 0 4.063 4.063zM20.5 8a.5.5 0 1 1 0-1 .5.5 0 0 1 0 1z" fill="#000" fill-rule="nonzero"/></svg>