<svg width="9" height="20" xmlns="http://www.w3.org/2000/svg"><g fill="none" fill-rule="evenodd"><path d="M-7-2h24v24H-7z"/><g fill="#000" stroke="#000" stroke-width=".4"><path d="M8.6 11.42L6.836 9.457a1.016 1.016 0 0 1-.216-.54L6.556 7.06V7a.567.567 0 0 0-.563-.57H3.582a.838.838 0 0 0-.706.453L.553 11.687a.563.563 0 0 0 .278.752l.343.152c.072.032.15.049.23.049a.59.59 0 0 0 .526-.324l1.088-2.186v2.198c-.005.012-.011.024-.015.037l-1.839 5.999a.918.918 0 0 0 .066.718.9.9 0 0 0 .561.445l.123.033c.08.022.164.034.248.034a.989.989 0 0 0 .935-.684l1.718-5.618.609 1.508a6.35 6.35 0 0 1 .35 1.407l.292 2.626c.047.445.395.768.827.768.071 0 .143-.01.214-.026l.124-.03c.493-.121.841-.633.776-1.142l-.431-3.235a6.729 6.729 0 0 0-.41-1.502l-.583-1.356c-.007-.018-.018-.034-.026-.05v-.92l1.05 1.108a.538.538 0 0 0 .79-.003l.195-.209a.616.616 0 0 0 .007-.815zM5 4.75c1.24 0 2.25-1.01 2.25-2.25S6.24.25 5 .25 2.75 1.26 2.75 2.5 3.76 4.75 5 4.75z"/></g></g></svg>