<svg width="28" height="28" xmlns="http://www.w3.org/2000/svg">
    <g fill="none" fill-rule="evenodd">
        <g stroke="#000" stroke-width="2">
            <path d="M3 6h22v16H3zM4 7c.121.078 1.854 1.349 5.199 3.812M24.538 7.118l-5.083 3.694"/></g>
        <path d="M14.5 19l-3.8-3.856a2.456 2.456 0 0 1 0-3.433A2.359 2.359 0 0 1 12.39 11c.64 0 1.24.253 1.692.711l.417.424.418-.424A2.36 2.36 0 0 1 16.608 11c.64 0 1.24.253 1.691.711.452.458.701 1.068.701 1.716a2.43 2.43 0 0 1-.7 1.717L14.5 19z" fill="#E677AB"/>
    </g></svg>