<svg width="28" height="28" xmlns="http://www.w3.org/2000/svg"><path d="M12.031 18.257c.601.263 1.267.41 1.969.41 2.651 0 4.8-2.09 4.8-4.667 0-.732-.173-1.424-.482-2.04l-1.92 1.924.002.116c0 1.289-1.075 2.333-2.4 2.333h-.047l-1.922 1.924zM20.8 9.475C22.456 10.6 24.189 12.108 26 14c-4.465 4.667-8.465 7-12 7-1.23 0-2.517-.283-3.86-.848L7.297 23 5.6 21.3 20.874 6l1.697 1.7-1.772 1.775zM6.177 17.788C4.833 16.768 3.44 15.506 2 14c4.465-4.667 8.465-7 12-7 .904 0 1.838.153 2.803.458l-1.997 1.94A4.967 4.967 0 0 0 14 9.334c-2.651 0-4.8 2.09-4.8 4.667 0 .267.023.529.067.784l-3.09 3.004z" fill="#000" fill-rule="evenodd"/></svg>