<svg width="28" height="28" xmlns="http://www.w3.org/2000/svg"><path d="M8.466 8c1.913-6.5 9.155-6.5 11.068 0H23.5a.51.51 0 0 1 .5.5v15a.51.51 0 0 1-.5.5h-19a.51.51 0 0 1-.5-.5v-15a.51.51 0 0 1 .5-.5h3.966zm1.05 0h8.968c-1.72-5.167-7.248-5.167-8.968 0zM8.225 9H5.5a.51.51 0 0 0-.5.5v13a.51.51 0 0 0 .5.5h17a.51.51 0 0 0 .5-.5v-13a.51.51 0 0 0-.5-.5h-2.725c.097.507.165 1.047.2 1.62a1 1 0 1 1-1.001.03c-.037-.59-.112-1.14-.22-1.65H9.246c-.108.51-.183 1.06-.22 1.65a1 1 0 1 1-1-.03c.034-.573.102-1.113.199-1.62z"/></svg>