<svg width="28" height="28" xmlns="http://www.w3.org/2000/svg"><path d="M9.626 18.543c1.95 1.95 3.815 3.608 5.594 4.973A6.69 6.69 0 0 0 25.648 20.3l.145-.439-5.683-5.682-2.464 2.464c-.51.51-1.3.604-1.916.229-.712-.435-1.527-1.102-2.438-2-1.175-1.16-2.11-2.31-2.805-3.448a1.56 1.56 0 0 1 .228-1.916l2.362-2.362-5.436-5.436-.438.145A6.611 6.611 0 0 0 3.966 12.08c1.556 2.091 3.443 4.245 5.66 6.462zm1.33-11.398L9.655 8.446a3.06 3.06 0 0 0-.448 3.76c.762 1.247 1.773 2.49 3.031 3.732.987.974 1.888 1.711 2.711 2.213a3.06 3.06 0 0 0 3.758-.448l1.403-1.404 3.954 3.954a5.19 5.19 0 0 1-7.931 2.073c-1.724-1.323-3.54-2.937-5.446-4.843-2.168-2.168-4.007-4.268-5.518-6.298a5.111 5.111 0 0 1 2.08-7.747l3.707 3.707z" fill="#000" fill-rule="nonzero"/></svg>