<?xml version="1.0" encoding="utf-8"?>
<!-- Generator: Adobe Illustrator 23.0.4, SVG Export Plug-In . SVG Version: 6.00 Build 0)  -->
<svg version="1.1" id="Слой_1" xmlns="http://www.w3.org/2000/svg" xmlns:xlink="http://www.w3.org/1999/xlink" x="0px" y="0px"
	 viewBox="0 0 40 48" style="enable-background:new 0 0 40 48;" xml:space="preserve">
<style type="text/css">
	.st0{stroke:#000000;stroke-width:2.16;}
	.st1{fill:#FFFFFF;}
</style>
<title>выбор ТТ</title>
<desc>Created with Sketch.</desc>
<path id="Oval" class="st0" d="M20,45.7C32,35.2,38,26.6,38,20c0-9.9-8.1-18-18-18S2,10.1,2,20C2,26.6,8,35.2,20,45.7z"/>
<path class="st1" d="M20.2,29.3c-2.1,0-3.9-0.5-5.4-1.5v-3c0.6,0.5,1.4,1,2.3,1.3c1,0.4,1.9,0.5,2.9,0.5c0.8,0,1.4-0.1,2-0.4
	c0.5-0.3,0.8-0.7,0.8-1.2c0-0.6-0.2-0.9-0.7-1.2c-0.2-0.1-0.5-0.2-0.8-0.4l-0.5-0.2L19.7,23l-1-0.3c-0.1,0-0.5-0.2-0.9-0.3
	c-0.4-0.2-0.7-0.3-0.9-0.4c-0.7-0.5-1.1-0.9-1.3-1.2c-0.3-0.6-0.5-1.3-0.5-2c0-1.2,0.5-2.2,1.4-2.9c1-0.7,2.3-1.1,3.9-1.1
	c1.7,0,3.2,0.4,4.6,1.2v2.8c-1.4-0.9-3-1.3-4.6-1.3c-1.6,0-2.4,0.5-2.4,1.4c0,0.4,0.2,0.7,0.7,1c0.3,0.2,0.7,0.3,1.1,0.4
	c0.6,0.2,1.1,0.3,1.5,0.4c1.2,0.4,2.2,0.9,3.1,1.5c0.9,0.7,1.4,1.6,1.4,2.9c0,1.4-0.5,2.4-1.6,3.2S21.8,29.3,20.2,29.3z"/>
</svg>
