<svg width="28" height="28" xmlns="http://www.w3.org/2000/svg"><path d="M14 2c6.627 0 12 5.373 12 12s-5.373 12-12 12S2 20.627 2 14 7.373 2 14 2zm5.844 7.295a.47.47 0 0 0-.58 0c-.09.074-.926.84-2.504 2.294l-2.385-3.427C14.26 8 14.138 8 14.003 8s-.237 0-.382.162c-.096.108-.888 1.251-2.375 3.427a803.459 803.459 0 0 0-2.505-2.295c-.136-.12-.423-.121-.564 0-.142.12-.196.281-.17.494l1.214 9.879c.06.198.242.333.449.333h8.69a.468.468 0 0 0 .446-.333 2839.7 2839.7 0 0 0 1.18-9.879c.038-.288 0-.372-.143-.495l.001.002z" fill="#000" fill-rule="nonzero"/></svg>