<svg width="28" height="28" xmlns="http://www.w3.org/2000/svg"><path d="M13.75 25.5C7.26 25.5 2 20.24 2 13.75S7.26 2 13.75 2 25.5 7.26 25.5 13.75 20.24 25.5 13.75 25.5zm0-1.5C19.41 24 24 19.41 24 13.75S19.41 3.5 13.75 3.5 3.5 8.09 3.5 13.75 8.09 24 13.75 24zm6.23-6.214l-.936 1.171a8.35 8.35 0 0 0-5.237-1.838 8.353 8.353 0 0 0-5.341 1.924l-.956-1.157a9.852 9.852 0 0 1 6.297-2.267 9.85 9.85 0 0 1 6.173 2.167zm-6.23-4.857c-1.646 0-3.369-1.516-3.369-3.235 0-1.987 1.235-3.504 3.369-3.504 2.134 0 3.369 1.517 3.369 3.504 0 1.719-1.723 3.235-3.369 3.235zm0-1.5c.857 0 1.869-.89 1.869-1.735 0-1.219-.639-2.004-1.869-2.004s-1.869.785-1.869 2.004c0 .845 1.012 1.735 1.869 1.735z" fill="#000" fill-rule="nonzero"/></svg>