<svg width="28" height="28" xmlns="http://www.w3.org/2000/svg"><path d="M25.873 18.74a1.534 1.534 0 0 0-.082-.148c-.416-.712-1.212-1.586-2.386-2.622l-.025-.024-.013-.011-.012-.012h-.013c-.533-.483-.87-.807-1.012-.973-.258-.316-.316-.637-.175-.961.1-.245.475-.763 1.125-1.554.341-.42.612-.755.812-1.008 1.441-1.82 2.066-2.982 1.874-3.488l-.074-.119c-.05-.07-.18-.136-.387-.195-.209-.06-.475-.07-.8-.03l-3.599.024a.491.491 0 0 0-.25.006l-.163.035-.062.03-.05.036a.545.545 0 0 0-.137.124.805.805 0 0 0-.125.208 18.954 18.954 0 0 1-1.337 2.669c-.309.49-.592.915-.85 1.275-.258.36-.475.625-.65.795a4.46 4.46 0 0 1-.475.41c-.141.102-.25.146-.324.13a9.57 9.57 0 0 1-.213-.048.806.806 0 0 1-.281-.29 1.253 1.253 0 0 1-.144-.463 4.849 4.849 0 0 1-.044-.48 9.53 9.53 0 0 1 .007-.57c.008-.245.012-.411.012-.498 0-.3.007-.627.019-.979l.031-.836c.009-.206.013-.423.013-.653 0-.23-.015-.409-.044-.54a1.782 1.782 0 0 0-.131-.38.65.65 0 0 0-.256-.284 1.488 1.488 0 0 0-.419-.16c-.441-.095-1.004-.146-1.687-.154-1.55-.016-2.545.079-2.986.285a1.673 1.673 0 0 0-.475.355c-.15.174-.171.27-.063.285.5.071.854.241 1.062.51l.075.142c.059.103.117.285.175.546.059.261.096.55.113.866a8.769 8.769 0 0 1 0 1.483c-.042.411-.081.732-.119.961-.037.23-.094.415-.169.557a2.32 2.32 0 0 1-.15.261.21.21 0 0 1-.062.06.98.98 0 0 1-.337.06c-.117 0-.259-.056-.425-.167a2.945 2.945 0 0 1-.519-.457 6.12 6.12 0 0 1-.606-.812c-.225-.348-.458-.76-.7-1.234l-.2-.344a29.036 29.036 0 0 1-.512-.967 18.18 18.18 0 0 1-.575-1.228.788.788 0 0 0-.3-.38l-.062-.035a.87.87 0 0 0-.2-.101 1.381 1.381 0 0 0-.287-.077L2.8 7.594c-.35 0-.587.076-.712.226l-.05.071a.367.367 0 0 0-.038.19c0 .087.025.194.075.32a38.32 38.32 0 0 0 1.63 3.227c.588 1.036 1.098 1.87 1.531 2.503.433.633.875 1.23 1.325 1.791.45.562.748.922.893 1.08.146.158.26.277.344.356l.312.285c.2.19.494.417.881.682.388.265.817.526 1.287.783a7.2 7.2 0 0 0 1.644.628 5.97 5.97 0 0 0 1.824.196h1.437c.292-.024.512-.11.662-.26l.05-.06a.765.765 0 0 0 .094-.22c.029-.098.044-.207.044-.326-.009-.34.018-.646.08-.919.063-.273.134-.478.213-.617.08-.138.17-.255.269-.35.1-.094.17-.152.213-.172a.839.839 0 0 1 .1-.041c.2-.063.434-.002.705.184.271.186.525.415.763.688.237.273.522.58.856.92.333.34.625.592.874.759l.25.142c.167.095.384.182.65.261.266.079.5.099.7.06l3.199-.048c.316 0 .562-.05.737-.149.175-.098.279-.207.312-.326a.873.873 0 0 0 .007-.403 1.43 1.43 0 0 0-.088-.315z" fill="#000" fill-rule="nonzero"/></svg>