<svg xmlns="http://www.w3.org/2000/svg" xmlns:xlink="http://www.w3.org/1999/xlink"><defs><symbol viewBox="0 0 28 28" id="add"><defs><path d="M16 12h10v4H16v10h-4V16H2v-4h10V2h4v10z" id="add_a" /></defs><use fill="currentColor" xlink:href="#add_a" /></symbol><symbol viewBox="0 0 28 28" id="add_photo"><path d="M22.782 7.011l-2.518-.013-2.413-3.626A.797.797 0 0 0 17.19 3h-6.5a.793.793 0 0 0-.647.359l-2.492 3.64-2.334.012C3.45 7.011 2 8.472 2 10.252v10.48C2 22.512 3.45 24 5.218 24h17.564C24.55 24 26 22.512 26 20.732v-10.48c0-1.78-1.45-3.24-3.218-3.24zm1.636 13.721c0 .904-.739 1.674-1.636 1.674H5.218c-.897 0-1.636-.77-1.636-1.674v-10.48a1.65 1.65 0 0 1 1.636-1.647h2.756a.793.793 0 0 0 .646-.358l2.492-3.64h5.657l2.4 3.613a.812.812 0 0 0 .646.359l2.954.026a1.65 1.65 0 0 1 1.635 1.647v10.48h.014z" /><path d="M14 9c-3.318 0-6 2.696-6 6s2.696 6 6 6 6-2.696 6-6-2.696-6-6-6zm0 10.306A4.314 4.314 0 0 1 9.694 15 4.314 4.314 0 0 1 14 10.694 4.314 4.314 0 0 1 18.306 15 4.314 4.314 0 0 1 14 19.306z" /></symbol><symbol viewBox="0 0 28 28" id="arrow"><path d="M18.853 13.933L8.07 24.717l1.06 1.06 11.844-11.844L9.13 2.09 8.07 3.15z" /></symbol><symbol viewBox="0 0 28 28" id="basket"><path d="M5 10h18l1 16H4l1-16zm1.879 2l-.75 12H21.87l-.75-12H6.88zM10 8H8a6 6 0 0 1 6-6h1a6 6 0 0 1 6 6h-2a4 4 0 0 0-4-4h-1a4 4 0 0 0-4 4z" /></symbol><symbol viewBox="0 0 28 28" id="big_tile"><path d="M2 2h11v11H2V2zm0 13h11v11H2V15zM15 2h11v11H15V2zm0 13h11v11H15V15z" fill-rule="evenodd" /></symbol><symbol viewBox="0 0 24 18" id="car"><g fill="none" fill-rule="evenodd"><path d="M-1-4h26v26H-1z" /><g transform="translate(-1 -4)"><path d="M0 0h26v26H0z" /><path d="M3.656 17.469v3.258c0 .225.182.406.406.406h3.25a.406.406 0 0 0 .407-.406V17.47H3.656zm14.625 0v3.27c0 .225.182.406.407.406h3.25a.406.406 0 0 0 .406-.406v-3.27H18.28z" stroke="#000" fill="#FFF" fill-rule="nonzero" /><path d="M2.844 11.929c-.421.375-.668.91-.68 1.474v3.66c0 1.121.83 2.03 1.952 2.03h17.822a2.03 2.03 0 0 0 2.03-2.03V13.5c0-.615-.279-1.198-.759-1.584l-.308-.247a2.844 2.844 0 0 1-.976-1.518l-.835-3.293c-.228-.899-1.035-1.932-1.962-1.935l-12.19-.044c-.92-.004-1.729 1.016-1.968 1.905l-.933 3.46a2.844 2.844 0 0 1-.856 1.385l-.337.3z" stroke="#000" fill="#000" /><path d="M4.81 11.917h16.38c1.197 0 2.167.97 2.167 2.166v2.438c0 1.196-.97 2.166-2.167 2.166H4.81a2.167 2.167 0 0 1-2.166-2.166v-2.438c0-1.196.97-2.166 2.167-2.166z" fill="#FFF" /><path fill="#000" d="M9.75 14.083h6.5v1.083h-6.5z" /><circle stroke="#000" fill="#FFF" cx="5.688" cy="15.438" r="1.625" /><circle stroke="#000" fill="#FFF" cx="20.313" cy="15.438" r="1.625" /><path fill="#000" d="M9.75 16.25h6.5v1.083h-6.5z" /><path d="M6.966 5.417h12.31c.69 0 1.098.707 1.307 1.35l1.084 4.066H4.333l1.12-4.055c.205-.648.819-1.361 1.513-1.361z" fill="#FFF" /></g></g></symbol><symbol viewBox="0 0 28 28" id="chat"><path d="M24.484 15.943c-.088.398-.198.79-.329 1.175-.105 1.41.691 3.281 2.441 5.577l.591.775-.9.373c-2.845 1.177-5.72 1.208-8.584.095a11.22 11.22 0 0 1-4.203.812c-6.213 0-11.25-5.037-11.25-11.25S7.287 2.25 13.5 2.25 24.75 7.287 24.75 13.5c0 .647-.055 1.286-.162 1.915a1.632 1.632 0 0 1-.104.528zm-1.814.942l.038-.172a9.67 9.67 0 0 0 .321-1.14l.034-.113c.02-.05.024-.07.025-.046l.01-.188A9.75 9.75 0 0 0 13.5 3.75c-5.385 0-9.75 4.365-9.75 9.75s4.365 9.75 9.75 9.75c1.36 0 2.679-.278 3.897-.81l.293-.128.295.123c2.29.953 4.553 1.07 6.822.352-1.58-2.264-2.306-4.223-2.137-5.902z" /></symbol><symbol viewBox="0 0 28 28" id="checked"><path d="M10.964 19.985l-6.363-6.364-1.415 1.415 7.778 7.778 14.85-14.85-1.415-1.414z" /></symbol><symbol viewBox="0 0 28 28" id="close"><path d="M15.515 14l9.85 9.849-1.516 1.515L14 15.515l-9.849 9.85-1.515-1.516L12.485 14l-9.85-9.849 1.516-1.515L14 12.485l9.849-9.85 1.515 1.516L15.515 14z" fill-rule="evenodd" /></symbol><symbol viewBox="0 0 28 28" id="dropdown"><path d="M14 24L26 4H2z" fill-rule="evenodd" /></symbol><symbol viewBox="0 0 28 28" id="facebook"><path d="M22.766 2H5.234A3.234 3.234 0 0 0 2 5.234v17.532A3.234 3.234 0 0 0 5.234 26h8.647l.014-8.576h-2.228a.526.526 0 0 1-.525-.524l-.011-2.765a.526.526 0 0 1 .526-.527h2.224v-2.671c0-3.1 1.893-4.788 4.658-4.788h2.27c.29 0 .525.235.525.525v2.331c0 .29-.235.526-.525.526h-1.393c-1.504 0-1.795.715-1.795 1.764v2.313h3.305c.315 0 .559.275.522.587l-.328 2.765a.526.526 0 0 1-.522.464h-2.962L17.62 26h5.145A3.234 3.234 0 0 0 26 22.766V5.234A3.234 3.234 0 0 0 22.766 2z" /></symbol><symbol viewBox="0 0 24 24" id="filter-outline"><path d="M15 19.88c.04.3-.06.62-.29.83a.996.996 0 0 1-1.41 0L9.29 16.7a.989.989 0 0 1-.29-.83v-5.12L4.21 4.62a1 1 0 0 1 .17-1.4c.19-.14.4-.22.62-.22h14c.22 0 .43.08.62.22a1 1 0 0 1 .17 1.4L15 10.75v9.13M7.04 5L11 10.06v5.52l2 2v-7.53L16.96 5H7.04z" /></symbol><symbol viewBox="0 0 28 28" id="heart"><path d="M13.998 4.615l.399-.407A7.272 7.272 0 0 1 19.622 2a7.27 7.27 0 0 1 5.224 2.208A7.54 7.54 0 0 1 27 9.514c0 2-.766 3.887-2.154 5.305L13.998 25.896 3.151 14.819C.283 11.89.283 7.137 3.15 4.209A7.27 7.27 0 0 1 8.375 2c1.973 0 3.833.787 5.225 2.208l.398.407zm9.42 8.804A5.54 5.54 0 0 0 25 9.514a5.54 5.54 0 0 0-1.583-3.906A5.272 5.272 0 0 0 19.622 4a5.272 5.272 0 0 0-3.796 1.607l-1.828 1.867-1.827-1.867A5.272 5.272 0 0 0 8.375 4 5.271 5.271 0 0 0 4.58 5.607c-2.107 2.152-2.107 5.662 0 7.812l9.418 9.618 9.42-9.618z" /></symbol><symbol viewBox="0 0 28 28" id="heart_background"><path d="M13.998 4.615l.399-.407A7.272 7.272 0 0 1 19.622 2a7.27 7.27 0 0 1 5.224 2.208A7.54 7.54 0 0 1 27 9.514c0 2-.766 3.887-2.154 5.305L13.998 25.896 3.151 14.819C.283 11.89.283 7.137 3.15 4.209A7.27 7.27 0 0 1 8.375 2c1.973 0 3.833.787 5.225 2.208l.398.407z" /></symbol><symbol viewBox="0 0 28 28" id="info"><path d="M14 26C7.373 26 2 20.627 2 14S7.373 2 14 2s12 5.373 12 12-5.373 12-12 12zm0-2c5.523 0 10-4.477 10-10S19.523 4 14 4 4 8.477 4 14s4.477 10 10 10zM13 8h2v2h-2V8zm0 5h2v7h-2v-7z" /></symbol><symbol viewBox="0 0 28 28" id="instagram"><path d="M18.5 2A7.5 7.5 0 0 1 26 9.5v9a7.5 7.5 0 0 1-7.5 7.5h-9A7.5 7.5 0 0 1 2 18.5v-9A7.5 7.5 0 0 1 9.5 2h9zm5.25 16.5v-9a5.256 5.256 0 0 0-5.25-5.25h-9A5.256 5.256 0 0 0 4.25 9.5v9a5.256 5.256 0 0 0 5.25 5.25h9a5.256 5.256 0 0 0 5.25-5.25zM14.5 8a6.5 6.5 0 1 1 0 13 6.5 6.5 0 0 1 0-13zm0 10.563a4.068 4.068 0 0 0 4.063-4.063 4.067 4.067 0 0 0-4.063-4.063 4.067 4.067 0 0 0-4.063 4.063 4.068 4.068 0 0 0 4.063 4.063zM20.5 8a.5.5 0 1 1 0-1 .5.5 0 0 1 0 1z" /></symbol><symbol viewBox="0 0 28 28" id="location"><path d="M22.778 5.222L12.172 25.728l-1.487-8.097-8.413-1.803z" fill-rule="evenodd" /></symbol><symbol viewBox="0 0 9 20" id="man"><g fill="none" fill-rule="evenodd"><path d="M-7-2h24v24H-7z" /><path d="M8.6 11.42L6.836 9.457a1.016 1.016 0 0 1-.216-.54L6.556 7.06V7a.567.567 0 0 0-.563-.57H3.582a.838.838 0 0 0-.706.453L.553 11.687a.563.563 0 0 0 .278.752l.343.152c.072.032.15.049.23.049a.59.59 0 0 0 .526-.324l1.088-2.186v2.198c-.005.012-.011.024-.015.037l-1.839 5.999a.918.918 0 0 0 .066.718.9.9 0 0 0 .561.445l.123.033a.94.94 0 0 0 .248.034.989.989 0 0 0 .935-.684l1.718-5.618.609 1.508a6.35 6.35 0 0 1 .35 1.407l.292 2.626c.047.445.395.768.827.768.071 0 .143-.01.214-.026l.124-.03c.493-.121.841-.633.776-1.142l-.431-3.235a6.729 6.729 0 0 0-.41-1.502l-.583-1.356c-.007-.018-.018-.034-.026-.05v-.92l1.05 1.108a.538.538 0 0 0 .79-.003l.195-.209a.616.616 0 0 0 .007-.815zM5 4.75c1.24 0 2.25-1.01 2.25-2.25S6.24.25 5 .25 2.75 1.26 2.75 2.5 3.76 4.75 5 4.75z" fill="#000" stroke="#000" stroke-width=".4" /></g></symbol><symbol viewBox="0 0 28 28" id="menu"><path d="M2 5h24v3H2V5zm0 8h24v3H2v-3zm0 8h24v3H2v-3z" fill-rule="evenodd" /></symbol><symbol viewBox="0 0 28 28" id="namek"><g fill="none" fill-rule="evenodd"><path d="M3 6h22v16H3zm1 1c.121.078 1.854 1.349 5.199 3.812m15.339-3.694l-5.083 3.694" stroke="#000" stroke-width="2" /><path d="M14.5 19l-3.8-3.856a2.456 2.456 0 0 1 0-3.433A2.359 2.359 0 0 1 12.39 11c.64 0 1.24.253 1.692.711l.417.424.418-.424A2.36 2.36 0 0 1 16.608 11c.64 0 1.24.253 1.691.711.452.458.701 1.068.701 1.716a2.43 2.43 0 0 1-.7 1.717L14.5 19z" fill="#E677AB" /></g></symbol><symbol viewBox="0 0 28 28" id="not_visible"><path d="M12.031 18.257a4.9 4.9 0 0 0 1.969.41c2.651 0 4.8-2.09 4.8-4.667 0-.732-.173-1.424-.482-2.04l-1.92 1.924.002.116c0 1.289-1.075 2.333-2.4 2.333h-.047l-1.922 1.924zM20.8 9.475C22.456 10.6 24.189 12.108 26 14c-4.465 4.667-8.465 7-12 7-1.23 0-2.517-.283-3.86-.848L7.297 23 5.6 21.3 20.874 6l1.697 1.7-1.772 1.775zM6.177 17.788C4.833 16.768 3.44 15.506 2 14c4.465-4.667 8.465-7 12-7 .904 0 1.838.153 2.803.458l-1.997 1.94A4.967 4.967 0 0 0 14 9.334c-2.651 0-4.8 2.09-4.8 4.667 0 .267.023.529.067.784l-3.09 3.004z" fill-rule="evenodd" /></symbol><symbol viewBox="0 0 28 28" id="notification"><path d="M14.5 26c1.375 0 2.5-1.35 2.5-3h-5c0 1.65 1.125 3 2.5 3zm7.147-7.53V12c0-3.647-2.47-6.588-5.882-7.412v-.823C15.765 2.824 14.94 2 14 2s-1.765.824-1.765 1.765v.823C8.824 5.412 6.353 8.353 6.353 12v6.47L4 20.825V22h20v-1.176l-2.353-2.353zM19 20H9v-7.682C9 9.364 11.222 7 14 7s5 2.364 5 5.318V20z" /></symbol><symbol viewBox="0 0 28 28" id="online_payment"><path d="M26 10H2V7a1 1 0 0 1 1-1h22a1 1 0 0 1 1 1v3zm0 3v8a1 1 0 0 1-1 1H3a1 1 0 0 1-1-1v-8h24z" fill-rule="evenodd" /></symbol><symbol viewBox="0 0 28 28" id="phone"><path d="M9.626 18.543c1.95 1.95 3.815 3.608 5.594 4.973A6.69 6.69 0 0 0 25.648 20.3l.145-.439-5.683-5.682-2.464 2.464c-.51.51-1.3.604-1.916.229-.712-.435-1.527-1.102-2.438-2-1.175-1.16-2.11-2.31-2.805-3.448a1.56 1.56 0 0 1 .228-1.916l2.362-2.362L7.641 1.71l-.438.145A6.611 6.611 0 0 0 3.966 12.08c1.556 2.091 3.443 4.245 5.66 6.462zm1.33-11.398L9.655 8.446a3.06 3.06 0 0 0-.448 3.76c.762 1.247 1.773 2.49 3.031 3.732.987.974 1.888 1.711 2.711 2.213a3.06 3.06 0 0 0 3.758-.448l1.403-1.404 3.954 3.954a5.19 5.19 0 0 1-7.931 2.073c-1.724-1.323-3.54-2.937-5.446-4.843-2.168-2.168-4.007-4.268-5.518-6.298a5.111 5.111 0 0 1 2.08-7.747l3.707 3.707z" /></symbol><symbol viewBox="0 0 28 28" id="pin"><path d="M14.702 25.348l-.452.342-.452-.342C7.293 20.433 4 16.116 4 12.298 4 6.61 8.588 2 14.25 2S24.5 6.611 24.5 12.298c0 3.818-3.293 8.135-9.798 13.05zM23 12.298c0-4.86-3.918-8.798-8.75-8.798S5.5 7.438 5.5 12.298c0 3.132 2.892 7 8.75 11.509C20.108 19.298 23 15.43 23 12.297zM14.25 16.5a4.25 4.25 0 1 1 0-8.5 4.25 4.25 0 0 1 0 8.5zm0-1.5a2.75 2.75 0 1 0 0-5.5 2.75 2.75 0 0 0 0 5.5z" /></symbol><symbol viewBox="0 0 28 28" id="search"><path d="M18.8 19.813c-4.106 3.66-10.262 3.683-14.03-.086-3.915-3.914-3.74-10.403.353-14.496C9.215 1.14 15.704.964 19.618 4.878c3.603 3.602 3.741 9.387.55 13.475l5.91 5.911-1.414 1.414-5.865-5.865zm-.95-1.854c3.328-3.328 3.47-8.552.354-11.667-3.115-3.115-8.34-2.974-11.667.354-3.328 3.327-3.469 8.551-.354 11.667 3.116 3.115 8.34 2.974 11.668-.354z" /></symbol><symbol viewBox="0 0 28 28" id="share"><path d="M11 15.912a4.25 4.25 0 1 1 0-4.824l4.872-3.373a4.25 4.25 0 1 1 1.004 1.129l-5.25 3.635a4.26 4.26 0 0 1 0 2.042l5.25 3.635a4.25 4.25 0 1 1-1.004 1.129L11 15.912zm8.5-7.662a2.75 2.75 0 1 0 0-5.5 2.75 2.75 0 0 0 0 5.5zm0 16a2.75 2.75 0 1 0 0-5.5 2.75 2.75 0 0 0 0 5.5zm-12-8a2.75 2.75 0 1 0 0-5.5 2.75 2.75 0 0 0 0 5.5z" /></symbol><symbol viewBox="0 0 28 28" id="show_map"><path d="M18.243 15h5.09L26 24H2l2.667-9h6.09l-1.205-1.475A6.296 6.296 0 0 1 8 9.385C8 5.854 10.915 3 14.5 3S21 5.854 21 9.385a6.272 6.272 0 0 1-1.542 4.128L18.243 15zm-2.583 0l2.27-2.777A4.297 4.297 0 0 0 19 9.385C19 6.968 16.99 5 14.5 5S10 6.968 10 9.385c0 1.055.383 2.05 1.07 2.838l.021.025L13.34 15h2.32zm-3.269 2H6.16l-1.481 5H23.32l-1.481-5h-5.231L14.5 19.58 12.391 17z" /></symbol><symbol viewBox="0 0 28 28" id="sim"><path d="M14 2c6.627 0 12 5.373 12 12s-5.373 12-12 12S2 20.627 2 14 7.373 2 14 2zm5.844 7.295a.47.47 0 0 0-.58 0c-.09.074-.926.84-2.504 2.294l-2.385-3.427C14.26 8 14.138 8 14.003 8s-.237 0-.382.162c-.096.108-.888 1.251-2.375 3.427a803.459 803.459 0 0 0-2.505-2.295c-.136-.12-.423-.121-.564 0-.142.12-.196.281-.17.494l1.214 9.879c.06.198.242.333.449.333h8.69a.468.468 0 0 0 .446-.333 2839.7 2839.7 0 0 0 1.18-9.879c.038-.288 0-.372-.143-.495l.001.002z" /></symbol><symbol viewBox="0 0 28 28" id="small_tile"><path d="M2 2h6v6H2V2zm9 0h6v6h-6V2zm9 0h6v6h-6V2zM2 11h6v6H2v-6zm9 0h6v6h-6v-6zm9 0h6v6h-6v-6zM2 20h6v6H2v-6zm9 0h6v6h-6v-6zm9 0h6v6h-6v-6z" fill-rule="evenodd" /></symbol><symbol viewBox="0 0 28 28" id="star"><path d="M14 21.5l-7.641 4.017 1.46-8.508-6.183-6.026L10.18 9.74 14 2l3.82 7.741 8.544 1.242-6.182 6.026 1.46 8.508z" fill-rule="evenodd" /></symbol><symbol viewBox="0 0 28 28" id="thin"><path d="M13.305 13.53L4.001 4.224l.707-.707 9.304 9.304 9.305-9.304.707.707-9.305 9.304 9.788 9.788-.707.707-9.788-9.787-9.787 9.787-.707-.707 9.787-9.788z" /></symbol><symbol viewBox="0 0 28 28" id="user"><path d="M13.75 25.5C7.26 25.5 2 20.24 2 13.75S7.26 2 13.75 2 25.5 7.26 25.5 13.75 20.24 25.5 13.75 25.5zm0-1.5C19.41 24 24 19.41 24 13.75S19.41 3.5 13.75 3.5 3.5 8.09 3.5 13.75 8.09 24 13.75 24zm6.23-6.214l-.936 1.171a8.35 8.35 0 0 0-5.237-1.838 8.353 8.353 0 0 0-5.341 1.924l-.956-1.157a9.852 9.852 0 0 1 6.297-2.267 9.85 9.85 0 0 1 6.173 2.167zm-6.23-4.857c-1.646 0-3.369-1.516-3.369-3.235 0-1.987 1.235-3.504 3.369-3.504 2.134 0 3.369 1.517 3.369 3.504 0 1.719-1.723 3.235-3.369 3.235zm0-1.5c.857 0 1.869-.89 1.869-1.735 0-1.219-.639-2.004-1.869-2.004s-1.869.785-1.869 2.004c0 .845 1.012 1.735 1.869 1.735z" /></symbol><symbol viewBox="0 0 28 28" id="visible"><path d="M14 21c-3.535 0-7.535-2.5-12-7.5C6.465 8.5 10.465 6 14 6s7.535 2.5 12 7.5c-4.465 5-8.465 7.5-12 7.5zm0-3a5 5 0 1 0 0-10 5 5 0 0 0 0 10zm0-2.5a2.5 2.5 0 1 1 0-5 2.5 2.5 0 0 1 0 5z" fill-rule="evenodd" /></symbol><symbol viewBox="0 0 28 28" id="vk"><path d="M25.873 18.74a1.534 1.534 0 0 0-.082-.148c-.416-.712-1.212-1.586-2.386-2.622l-.025-.024-.013-.011-.012-.012h-.013c-.533-.483-.87-.807-1.012-.973-.258-.316-.316-.637-.175-.961.1-.245.475-.763 1.125-1.554.341-.42.612-.755.812-1.008 1.441-1.82 2.066-2.982 1.874-3.488l-.074-.119c-.05-.07-.18-.136-.387-.195-.209-.06-.475-.07-.8-.03l-3.599.024a.491.491 0 0 0-.25.006l-.163.035-.062.03-.05.036a.545.545 0 0 0-.137.124.805.805 0 0 0-.125.208 18.954 18.954 0 0 1-1.337 2.669c-.309.49-.592.915-.85 1.275-.258.36-.475.625-.65.795a4.46 4.46 0 0 1-.475.41c-.141.102-.25.146-.324.13a9.57 9.57 0 0 1-.213-.048.806.806 0 0 1-.281-.29 1.253 1.253 0 0 1-.144-.463 4.849 4.849 0 0 1-.044-.48 9.53 9.53 0 0 1 .007-.57c.008-.245.012-.411.012-.498 0-.3.007-.627.019-.979l.031-.836c.009-.206.013-.423.013-.653 0-.23-.015-.409-.044-.54a1.782 1.782 0 0 0-.131-.38.65.65 0 0 0-.256-.284 1.488 1.488 0 0 0-.419-.16c-.441-.095-1.004-.146-1.687-.154-1.55-.016-2.545.079-2.986.285a1.673 1.673 0 0 0-.475.355c-.15.174-.171.27-.063.285.5.071.854.241 1.062.51l.075.142c.059.103.117.285.175.546.059.261.096.55.113.866a8.769 8.769 0 0 1 0 1.483 16.66 16.66 0 0 1-.119.961 1.82 1.82 0 0 1-.169.557 2.32 2.32 0 0 1-.15.261.21.21 0 0 1-.062.06.98.98 0 0 1-.337.06c-.117 0-.259-.056-.425-.167a2.945 2.945 0 0 1-.519-.457 6.12 6.12 0 0 1-.606-.812c-.225-.348-.458-.76-.7-1.234l-.2-.344a29.036 29.036 0 0 1-.512-.967 18.18 18.18 0 0 1-.575-1.228.788.788 0 0 0-.3-.38l-.062-.035a.87.87 0 0 0-.2-.101 1.381 1.381 0 0 0-.287-.077L2.8 7.594c-.35 0-.587.076-.712.226l-.05.071a.367.367 0 0 0-.038.19c0 .087.025.194.075.32a38.32 38.32 0 0 0 1.63 3.227 36.345 36.345 0 0 0 1.531 2.503c.433.633.875 1.23 1.325 1.791.45.562.748.922.893 1.08.146.158.26.277.344.356l.312.285c.2.19.494.417.881.682.388.265.817.526 1.287.783a7.2 7.2 0 0 0 1.644.628 5.97 5.97 0 0 0 1.824.196h1.437c.292-.024.512-.11.662-.26l.05-.06a.765.765 0 0 0 .094-.22c.029-.098.044-.207.044-.326-.009-.34.018-.646.08-.919.063-.273.134-.478.213-.617.08-.138.17-.255.269-.35.1-.094.17-.152.213-.172a.839.839 0 0 1 .1-.041c.2-.063.434-.002.705.184.271.186.525.415.763.688.237.273.522.58.856.92.333.34.625.592.874.759l.25.142c.167.095.384.182.65.261.266.079.5.099.7.06l3.199-.048c.316 0 .562-.05.737-.149.175-.098.279-.207.312-.326a.873.873 0 0 0 .007-.403 1.43 1.43 0 0 0-.088-.315z" /></symbol></defs></svg>